<svg width="20" height="20" viewBox="0 0 20 20" fill="none" xmlns="http://www.w3.org/2000/svg">
<path d="M15.2029 19.0931H4.60621V6.87351L11.241 0L12.1718 0.739857C12.2673 0.819411 12.3389 0.930788 12.3866 1.07399C12.4344 1.21718 12.4582 1.3922 12.4582 1.59905V1.83771L11.3842 6.87351H18.5203C18.9021 6.87351 19.2363 7.01671 19.5227 7.3031C19.8091 7.5895 19.9523 7.92363 19.9523 8.30549V10.2625C19.9523 10.3739 19.9642 10.4893 19.9881 10.6086C20.0119 10.7279 20 10.8433 19.9523 10.9547L16.9451 17.8759C16.8019 18.21 16.5672 18.4964 16.241 18.7351C15.9149 18.9737 15.5688 19.0931 15.2029 19.0931ZM6.03819 17.6611H15.5131L18.5203 10.5251V8.30549H9.61814L10.8831 2.36277L6.03819 7.47017V17.6611ZM6.03819 7.47017V17.6611V7.47017ZM4.60621 6.87351V8.30549H1.43198V17.6611H4.60621V19.0931H0V6.87351H4.60621Z" fill="#228B22"/>
</svg>
