<svg width="25" height="25" viewBox="0 0 25 25" fill="none" xmlns="http://www.w3.org/2000/svg">
<path d="M12.5 20.75C12.9792 20.75 13.3906 20.5729 13.7344 20.2188C14.0781 19.8646 14.25 19.4479 14.25 18.9688H10.7188C10.7188 19.4479 10.8958 19.8646 11.25 20.2188C11.6042 20.5729 12.0208 20.75 12.5 20.75ZM6.4375 17.0938H18.5312V15.2188H17.2812V11.625C17.2812 10.3542 16.9531 9.19792 16.2969 8.15625C15.6406 7.11458 14.7188 6.47917 13.5312 6.25V5.3125C13.5312 5.02083 13.4323 4.77604 13.2344 4.57812C13.0365 4.38021 12.7917 4.28125 12.5 4.28125C12.2083 4.28125 11.9583 4.38021 11.75 4.57812C11.5417 4.77604 11.4375 5.02083 11.4375 5.3125V6.25C10.25 6.47917 9.32812 7.09375 8.67188 8.09375C8.01562 9.09375 7.6875 10.2083 7.6875 11.4375V15.2188H6.4375V17.0938ZM12.5 25C10.7292 25 9.08333 24.6823 7.5625 24.0469C6.04167 23.4115 4.71875 22.5312 3.59375 21.4062C2.46875 20.2812 1.58854 18.9583 0.953125 17.4375C0.317708 15.9167 0 14.2708 0 12.5C0 10.75 0.317708 9.11458 0.953125 7.59375C1.58854 6.07292 2.46875 4.75 3.59375 3.625C4.71875 2.5 6.04167 1.61458 7.5625 0.96875C9.08333 0.322917 10.7292 0 12.5 0C14.25 0 15.8854 0.322917 17.4062 0.96875C18.9271 1.61458 20.25 2.5 21.375 3.625C22.5 4.75 23.3854 6.07292 24.0312 7.59375C24.6771 9.11458 25 10.75 25 12.5C25 14.2708 24.6771 15.9167 24.0312 17.4375C23.3854 18.9583 22.5 20.2812 21.375 21.4062C20.25 22.5312 18.9271 23.4115 17.4062 24.0469C15.8854 24.6823 14.25 25 12.5 25ZM12.5 23.125C15.5208 23.125 18.0469 22.1094 20.0781 20.0781C22.1094 18.0469 23.125 15.5208 23.125 12.5C23.125 9.47917 22.1094 6.95312 20.0781 4.92188C18.0469 2.89062 15.5208 1.875 12.5 1.875C9.47917 1.875 6.95312 2.89062 4.92188 4.92188C2.89062 6.95312 1.875 9.47917 1.875 12.5C1.875 15.5208 2.89062 18.0469 4.92188 20.0781C6.95312 22.1094 9.47917 23.125 12.5 23.125ZM9.5625 15.2188V11.25C9.5625 10.3958 9.83854 9.67188 10.3906 9.07812C10.9427 8.48438 11.6458 8.1875 12.5 8.1875C13.3542 8.1875 14.0521 8.48438 14.5938 9.07812C15.1354 9.67188 15.4062 10.3958 15.4062 11.25V15.2188H9.5625Z" fill="white"/>
</svg>
