<svg width="20" height="20" viewBox="0 0 20 20" fill="none" xmlns="http://www.w3.org/2000/svg">
<path d="M1.47971 12.2196C1.09785 12.2196 0.763723 12.0764 0.477327 11.79C0.190931 11.5036 0.0477327 11.1695 0.0477327 10.7876V8.83055C0.0477327 8.71917 0.0357995 8.60382 0.0119332 8.48449C-0.0119332 8.36516 1.77818e-08 8.2498 0.0477327 8.13842L3.05489 1.21718C3.19809 0.883055 3.43278 0.596659 3.75895 0.357995C4.08512 0.119332 4.43119 0 4.79714 0H15.3938V12.2196L8.75895 19.0931L7.82816 18.3532C7.7327 18.2737 7.6611 18.1623 7.61337 18.0191C7.56563 17.8759 7.54177 17.7009 7.54177 17.494V17.2554L8.61575 12.2196H1.47971ZM13.9618 1.43198H4.48687L1.47971 8.56802V10.7876H10.3819L9.11695 16.7303L13.9618 11.6229V1.43198ZM13.9618 11.6229V1.43198V11.6229ZM15.3938 12.2196V10.7876H18.568V1.43198H15.3938V0H20V12.2196H15.3938Z" fill="#AA4A44"/>
</svg>
