<svg width="20" height="21" viewBox="0 0 20 21" fill="none" xmlns="http://www.w3.org/2000/svg">
<path d="M1.44928 20.0242C1.0628 20.0242 0.724638 19.8792 0.434783 19.5894C0.144928 19.2995 0 18.9614 0 18.5749V4.08213C0 3.69565 0.144928 3.35749 0.434783 3.06763C0.724638 2.77778 1.0628 2.63285 1.44928 2.63285H11.2319L9.78261 4.08213H1.44928V18.5749H15.942V10.1691L17.3913 8.71981V18.5749C17.3913 18.9614 17.2464 19.2995 16.9565 19.5894C16.6667 19.8792 16.3285 20.0242 15.942 20.0242H1.44928ZM13.0918 2.82609L14.1304 3.84058L7.24638 10.7005V12.7778H9.29952L16.2077 5.86957L17.2222 6.88406L9.90338 14.2271H5.7971V10.1208L13.0918 2.82609ZM17.2222 6.88406L13.0918 2.82609L15.5072 0.410628C15.781 0.136876 16.1232 0 16.5338 0C16.9444 0 17.2866 0.144928 17.5604 0.434783L19.5894 2.48792C19.8631 2.77778 20 3.11997 20 3.51449C20 3.90902 19.8551 4.24316 19.5652 4.51691L17.2222 6.88406Z" fill="#324755"/>
</svg>
