<svg width="26" height="26" viewBox="0 0 26 26" fill="none" xmlns="http://www.w3.org/2000/svg">
<path d="M10.01 26L9.36 21.905C8.94833 21.7533 8.515 21.5475 8.06 21.2875C7.605 21.0275 7.20417 20.7567 6.8575 20.475L3.0225 22.23L0 16.9L3.51 14.3325C3.46667 14.1375 3.43958 13.9154 3.42875 13.6662C3.41792 13.4171 3.4125 13.195 3.4125 13C3.4125 12.805 3.41792 12.5829 3.42875 12.3337C3.43958 12.0846 3.46667 11.8625 3.51 11.6675L0 9.1L3.0225 3.77L6.8575 5.525C7.20417 5.24333 7.605 4.9725 8.06 4.7125C8.515 4.4525 8.94833 4.2575 9.36 4.1275L10.01 0H15.99L16.64 4.095C17.0517 4.24667 17.4904 4.44708 17.9562 4.69625C18.4221 4.94542 18.8175 5.22167 19.1425 5.525L22.9775 3.77L26 9.1L22.49 11.6025C22.5333 11.8192 22.5604 12.0521 22.5712 12.3012C22.5821 12.5504 22.5875 12.7833 22.5875 13C22.5875 13.2167 22.5821 13.4442 22.5712 13.6825C22.5604 13.9208 22.5333 14.1483 22.49 14.365L26 16.9L22.9775 22.23L19.1425 20.475C18.7958 20.7567 18.4004 21.0329 17.9562 21.3038C17.5121 21.5746 17.0733 21.775 16.64 21.905L15.99 26H10.01ZM13 17.225C14.17 17.225 15.1667 16.8133 15.99 15.99C16.8133 15.1667 17.225 14.17 17.225 13C17.225 11.83 16.8133 10.8333 15.99 10.01C15.1667 9.18667 14.17 8.775 13 8.775C11.83 8.775 10.8333 9.18667 10.01 10.01C9.18667 10.8333 8.775 11.83 8.775 13C8.775 14.17 9.18667 15.1667 10.01 15.99C10.8333 16.8133 11.83 17.225 13 17.225ZM13 15.275C12.3717 15.275 11.8354 15.0529 11.3912 14.6087C10.9471 14.1646 10.725 13.6283 10.725 13C10.725 12.3717 10.9471 11.8354 11.3912 11.3912C11.8354 10.9471 12.3717 10.725 13 10.725C13.6283 10.725 14.1646 10.9471 14.6087 11.3912C15.0529 11.8354 15.275 12.3717 15.275 13C15.275 13.6283 15.0529 14.1646 14.6087 14.6087C14.1646 15.0529 13.6283 15.275 13 15.275ZM11.57 24.05H14.43L14.885 20.41C15.6 20.2367 16.2771 19.9658 16.9162 19.5975C17.5554 19.2292 18.135 18.785 18.655 18.265L22.1 19.76L23.4 17.42L20.345 15.1775C20.4317 14.8092 20.5021 14.4462 20.5562 14.0887C20.6104 13.7312 20.6375 13.3683 20.6375 13C20.6375 12.6317 20.6158 12.2688 20.5725 11.9113C20.5292 11.5538 20.4533 11.1908 20.345 10.8225L23.4 8.58L22.1 6.24L18.655 7.735C18.1567 7.17167 17.5933 6.70042 16.965 6.32125C16.3367 5.94208 15.6433 5.69833 14.885 5.59L14.43 1.95H11.57L11.115 5.59C10.3783 5.74167 9.69042 6.00167 9.05125 6.37C8.41208 6.73833 7.84333 7.19333 7.345 7.735L3.9 6.24L2.6 8.58L5.655 10.8225C5.56833 11.1908 5.49792 11.5538 5.44375 11.9113C5.38958 12.2688 5.3625 12.6317 5.3625 13C5.3625 13.3683 5.38958 13.7312 5.44375 14.0887C5.49792 14.4462 5.56833 14.8092 5.655 15.1775L2.6 17.42L3.9 19.76L7.345 18.265C7.865 18.785 8.44458 19.2292 9.08375 19.5975C9.72292 19.9658 10.4 20.2367 11.115 20.41L11.57 24.05Z" fill="white"/>
</svg>
