<svg width="22" height="28" viewBox="0 0 22 28" fill="none" xmlns="http://www.w3.org/2000/svg">
<path d="M9.41875 21.4844L17.2906 13.6125L15.95 12.2719L9.41875 18.8031L5.87812 15.2625L4.5375 16.6031L9.41875 21.4844ZM2.0625 27.5C1.5125 27.5 1.03125 27.2937 0.61875 26.8812C0.20625 26.4687 0 25.9875 0 25.4375V2.0625C0 1.5125 0.20625 1.03125 0.61875 0.61875C1.03125 0.20625 1.5125 0 2.0625 0H14.4719L22 7.52812V25.4375C22 25.9875 21.7937 26.4687 21.3812 26.8812C20.9687 27.2937 20.4875 27.5 19.9375 27.5H2.0625ZM13.4406 8.45625V2.0625H2.0625V25.4375H19.9375V8.45625H13.4406ZM2.0625 2.0625V8.45625V2.0625V25.4375V2.0625Z" fill="white"/>
</svg>
