<svg width="23" height="21" viewBox="0 0 23 21" fill="none" xmlns="http://www.w3.org/2000/svg">
<path d="M10.5 20.9166C9.02431 20.9166 7.65278 20.6519 6.38542 20.1224C5.11806 19.5929 4.01563 18.8594 3.07813 17.9219C2.14063 16.9844 1.40712 15.8819 0.877607 14.6146C0.348093 13.3472 0.0833359 11.9757 0.0833359 10.5C0.0833359 9.04165 0.348093 7.6788 0.877607 6.41144C1.40712 5.14408 2.14063 4.04165 3.07813 3.10415C4.01563 2.16665 5.11806 1.4288 6.38542 0.890605C7.65278 0.35241 9.02431 0.083313 10.5 0.083313C11.8021 0.083313 13.0174 0.291646 14.1458 0.708313C15.2743 1.12498 16.2899 1.6979 17.1927 2.42706L16.0729 3.54685C15.309 2.93922 14.4583 2.47047 13.5208 2.1406C12.5833 1.81074 11.5764 1.64581 10.5 1.64581C7.98264 1.64581 5.87761 2.49217 4.1849 4.18488C2.49219 5.87758 1.64584 7.98262 1.64584 10.5C1.64584 13.0173 2.49219 15.1224 4.1849 16.8151C5.87761 18.5078 7.98264 19.3541 10.5 19.3541C11.1424 19.3541 11.763 19.2934 12.362 19.1719C12.9609 19.0503 13.5382 18.868 14.0938 18.625L15.2656 19.8229C14.5538 20.1701 13.7986 20.4392 13 20.6302C12.2014 20.8212 11.3681 20.9166 10.5 20.9166ZM18.0521 18.5729V15.4479H14.9271V13.8854H18.0521V10.7604H19.6146V13.8854H22.7396V15.4479H19.6146V18.5729H18.0521ZM8.96354 15.2396L4.66667 10.9166L5.83854 9.74477L8.96354 12.8698L19.7448 2.08852L20.9427 3.2604L8.96354 15.2396Z" fill="#324755"/>
</svg>
